<?xml version="1.0" encoding="utf-8"?>
<!-- Generator: Adobe Illustrator 19.1.0, SVG Export Plug-In . SVG Version: 6.00 Build 0)  -->
<svg version="1.1" id="Layer_1" xmlns="http://www.w3.org/2000/svg" xmlns:xlink="http://www.w3.org/1999/xlink" x="0px" y="0px"
	 viewBox="1905 -402.1 4998.1 1194.1" style="enable-background:new 1905 -402.1 4998.1 1194.1;" xml:space="preserve">
<style type="text/css">
	.st0{display:none;fill:#231F20;enable-background:new    ;}
	.st1{font-family:'NNMedien-Medium';}
	.st2{font-size:516px;}
	.st3{fill:#F27923;}
	.st4{fill:#F5A730;}
	.st5{fill:#20AD92;}
	.st6{fill:#D0D1D1;}
</style>
<text id="XMLID_19_" transform="matrix(1 0 0 1 2387.627 -104.0705)" class="st0 st1 st2">x</text>
<g id="XMLID_1_">
	<path id="XMLID_75_" class="st3" d="M2303.8,362.2c-4.5,2.1-7.3,6.6-7.3,11.5s2.8,9.4,7.3,11.5l245.7,115.1
		c3.3,1.6,6.8,2.3,10.4,2.4V245.8c-3.7,0-7.3,0.8-10.7,2.4L2303.8,362.2z"/>
	<path id="XMLID_74_" class="st4" d="M2559.9,245.8v256.8c3.8,0.1,7.6-0.7,11.1-2.4l245-114.7c4.5-2.1,7.3-6.6,7.3-11.5
		s-2.8-9.4-7.3-11.5l-245.4-114.3C2567.2,246.6,2563.6,245.8,2559.9,245.8z"/>
	<path id="XMLID_73_" class="st5" d="M2296.5,26.2c0,5,2.8,9.4,7.3,11.5l245.7,115.1c3.3,1.6,6.8,2.3,10.4,2.4
		c3.1,0,6.2-0.5,9.2-1.6c2.3-1.1,1.9-0.9,6.9-3.2c25.4-11.8,8.6-3.9,240.1-112.3c4.5-2.1,7.3-6.6,7.3-11.5s-2.8-9.4-7.3-11.5
		L2570.6-99.4c-6.8-3.2-14.6-3.2-21.4,0L2303.8,14.7C2299.4,16.7,2296.5,21.2,2296.5,26.2z"/>
	<path id="XMLID_72_" class="st6" d="M2559.9,169.5v76.3c-3.7,0-7.3,0.8-10.7,2.4l-245.4,114c-4.5,2.1-7.3,6.6-7.3,11.5v-339
		c0,0,0-9.8,0-8.6c0,4.9,2.8,9.4,7.3,11.5l245.8,115c3.3,1.6,6.8,2.3,10.4,2.4c3.1,0,6.2-0.5,9.2-1.6l-0.4,0.2
		C2561.1,157.2,2559.9,160.8,2559.9,169.5z"/>
</g>
</svg>
